<svg xmlns="http://www.w3.org/2000/svg" viewBox="0 0 800 190.8" enable-background="new 0 0 800 190.8"><path fill="#ACBF30" d="M46.7 188.4l94.2-94.2-94.2-94.2z"/><path fill="#3F71B7" d="M188 47.1l-47.1-47.1h-94.2l94.2 94.2z"/><path fill="#F2C119" d="M140.9 0h94.2v94.2z"/><path fill="#E95423" d="M140.9 94.2l94.2 94.2h-188.4z"/><path fill="#325A92" d="M93.8 47.1h94.2l-47.1 47.1z"/><path fill="#F59D21" d="M140.912 94.219l47.093-47.093 47.093 47.093-47.093 47.093z"/><path fill="#7B933F" d="M46.7 188.4l-47.1-47.1 47.1-47.1z"/><path fill="#8B3E1F" d="M188 141.3l-47.1 47.1h94.2z"/><g fill="#363636"><path d="M459.3 188.4h-3.5c-9 0-16.6-.2-22.8-.6-6.1-.4-11.4-1.3-15.9-2.8-4.4-1.5-8.3-3.7-11.5-6.6-3.2-2.9-6.5-7-9.7-12l-22-34.7-9.9 7.3v20.1c0 3.6.6 6.4 1.8 8.5 1.2 2.1 2.6 3.7 4.4 4.8 1.7 1.1 3.7 1.9 5.8 2.2 2.1.4 4 .5 5.8.5h2.9v13.2h-78.8v-13.2h2.9c1.9 0 3.8-.2 5.9-.5 2.1-.4 4-1.1 5.7-2.2 1.7-1.1 3.2-2.7 4.4-4.8 1.2-2.1 1.8-4.9 1.8-8.5v-130.9c0-3.3-.6-6-1.8-7.9-1.2-2-2.6-3.5-4.4-4.6-1.8-1.1-3.7-1.8-5.8-2.1-2.1-.3-4-.5-5.8-.5h-2.9v-13.1h58.1v95.7c0 2.3-.1 4.9-.2 7.8-.1 2.9-.3 5.8-.4 8.4-.2 3.1-.4 6.3-.6 9.6l31.2-35c2.7-3.1 4.5-5.5 5.4-7.3.8-1.8 1.3-3.3 1.3-4.5 0-2.1-1.1-3.7-3.3-4.9-2.2-1.2-5.4-1.8-9.5-1.8v-12.5h62.5v12.5c-5.7 0-11.4 1.7-16.9 5-5.5 3.4-11.6 8.7-18.1 16l-15.6 17.8 32.9 49.2c4.4 6.5 8.8 11.4 13.2 14.5 4.4 3.1 8.6 4.7 12.6 4.7h.8v13.2zM517.9 190.8c-10.5 0-19.8-1.5-27.8-4.6-8-3.1-14.8-7.5-20.2-13.3-5.4-5.8-9.5-12.9-12.2-21.4-2.7-8.4-4.1-18.1-4.1-28.9 0-11.6 1.4-21.8 4.1-30.6 2.7-8.8 6.7-16.1 12-22 5.2-5.9 11.7-10.3 19.3-13.3 7.6-2.9 16.3-4.4 26.1-4.4 9 0 17 1.3 24.2 3.8 7.2 2.5 13.3 6.3 18.3 11.3 5 5 8.8 11.2 11.5 18.6 2.7 7.4 4 16.1 4 25.9v12.7h-81.2c.2 8.3 1.2 15.5 2.7 21.4 1.6 6 3.8 10.9 6.5 14.8 2.8 3.9 6.2 6.7 10.2 8.6 4 1.9 8.6 2.8 13.7 2.8 4.3 0 8.2-.5 11.9-1.5 3.6-1 6.9-2.4 9.9-4.2 2.9-1.8 5.5-4 7.7-6.4 2.2-2.5 4.1-5.1 5.5-7.9 4.4 2.4 6.7 6.5 6.7 12.1 0 3.6-1 6.9-2.9 10.1-1.9 3.2-4.9 6-9 8.4-4 2.4-9.1 4.4-15.2 5.8-6.1 1.5-13.4 2.2-21.7 2.2zm-2.3-122.4c-6.9 0-12.5 3.4-16.5 10.3-4.1 6.9-6.3 16.9-6.7 30.1h42.9c0-6.3-.4-11.9-1.1-17-.7-5-1.9-9.2-3.5-12.7s-3.6-6.1-6.1-8c-2.5-1.8-5.5-2.7-9-2.7zM648.9 170.8c3.2 0 6.3-.2 9.3-.7 2.9-.4 5.7-1 8.3-1.6v16.1c-1.3.6-3 1.3-5.3 2.1-2.2.7-4.8 1.4-7.7 2-2.9.6-6.3 1.1-10 1.5-3.7.4-7.7.6-12.1.6-5.6 0-10.6-.7-15.1-2s-8.4-3.6-11.5-6.7c-3.1-3.1-5.6-7.1-7.3-12.1-1.7-5-2.5-11.1-2.5-18.3v-79.3h-18.6v-12.7c5.3 0 10.1-1 14.3-3.1 4.2-2.1 7.5-4.5 10-7.3 5.1-5.3 8.9-13.5 11.4-24.6h20.6v30.8h31.7v17h-31.7v76.8c0 7.5 1.3 13 3.8 16.5 2.4 3.3 6.6 5 12.4 5zM730.7 67.4c-3.1 0-5.8.7-7.9 2-2.1 1.3-3.9 3.2-5.1 5.6-1.3 2.4-2.2 5.2-2.7 8.5s-.8 6.8-.8 10.7c-11.1 0-19.5-1.3-25.1-3.8-5.6-2.5-8.4-6.8-8.4-12.8 0-4.5 1.4-8.4 4.1-11.6 2.7-3.2 6.4-5.9 11-7.9s10-3.5 16.2-4.4c6.2-.9 12.8-1.4 19.8-1.4 8.7 0 16.3.7 22.8 2.2 6.5 1.5 11.9 3.9 16.2 7.2 4.3 3.3 7.6 7.6 9.7 13 2.2 5.4 3.3 11.9 3.3 19.7v63.2c0 3.4.3 6.2.8 8.5s1.4 4.1 2.5 5.4c1.1 1.3 2.7 2.3 4.6 2.8 1.9.6 4.3.8 7 .8h1v13.2h-46.1l-5.2-17.1h-2.2c-2.7 3.3-5.3 6.2-7.7 8.7-2.4 2.5-5 4.5-7.7 6.1-2.7 1.6-5.8 2.8-9.3 3.6-3.4.8-7.5 1.2-12.2 1.2-5.5 0-10.6-.8-15.3-2.4-4.7-1.6-8.8-4.1-12.3-7.4-3.5-3.3-6.3-7.5-8.3-12.6-2-5-3-11-3-17.9 0-13.5 4.6-23.4 13.9-29.9 9.2-6.5 23.1-10 41.7-10.5l20.3-.7v-13.7c0-4.1-.2-7.9-.5-11.4s-1-6.5-2.1-9-2.6-4.4-4.7-5.8c-2.2-1.4-4.9-2.1-8.3-2.1zm-22 84.1c0 7.1 1.1 12.4 3.4 16 2.3 3.6 5.8 5.3 10.7 5.3 3.6 0 6.8-.7 9.6-2.2 2.9-1.5 5.3-3.6 7.4-6.4 2.1-2.7 3.6-6.1 4.7-10 1.1-3.9 1.6-8.3 1.6-13.1v-18.6l-11.1.7c-4.9.2-9.1 1-12.5 2.4-3.4 1.3-6.1 3.2-8.1 5.5s-3.5 5.2-4.4 8.6c-.9 3.3-1.3 7.2-1.3 11.8z"/></g></svg>