<svg xmlns="http://www.w3.org/2000/svg" viewBox="0 0 131.3 110.2" enable-background="new 0 0 131.3 110.2"><path fill="#BABF10" d="M124.3 55.2c-1.9-3.1-4-6.1-6.2-9-6-7.8-13.1-15.8-21.7-24.4-2.9-2.8-5.4-5.3-7.9-7.5-3.1-2.8-5.7-5-8.3-7-1.6-1.3-3.1-2.2-4.4-3-.7-.4-1.5-.9-2.4-1.2-.9-.3-1.9-.4-2.9-.5l-4.5.3c-5.4.3-7.9 1-12.1 2.2l-1.4.4c-2.9.8-5.2 1.5-7.4 2.2-2.2.7-4.5 1.5-7.1 2.5-5.2 1.9-9.7 3.8-13.5 5.7-2.1 1.1-4.2 2.2-6.1 3.4-1.1.7-1.9 1.3-2.7 1.9-.7.6-1.6 1.4-2.1 2.2-.5.8-.8 1.8-1.2 2.9l-.1.3c-1.2 3.5-2 7.2-3 11.4-1 4.5-2 9.6-3.1 16.2-.7 5.2-1.5 10.8-2.2 16.8-.7 5.6-1.1 10.7-1.3 15.5v.8c0 .6 0 1.1-.1 1.7v3.5c.1 1.6.1 3.5.4 5.1.2 1.2.5 2.8 1.2 3.8.7.9 2 1.5 3 1.9 1.2.5 2.6 1 4.2 1.4 6.4 1.6 14 2.2 20.5 2.6 3.9.2 8.1.2 11.4.2 8.2 0 15.4-.5 21.8-1.4 2.8-.4 6.4-1 9.4-2 2.8-.9 5.4-2 8.3-3.3 2.5-1 4.9-2.2 7.3-3.4l.7-.3c5.1-2.5 10-5.1 15.1-8.2 5.3-3.2 9.8-6.3 13.6-9.5 1-.8 2-1.7 2.9-2.7 1-1 1.9-2 2.7-3 1.6-2 3.1-4.2 3.5-7.3v-1.1c-.2-2-1-3.8-1.7-5.4-.7-1.4-1.6-3-2.6-4.7zm-96.3-20.5c.9-1.4 2.8-1.8 4.2-.9 1.4.9 1.8 2.8.9 4.2-.9 1.4-2.8 1.8-4.2.9-1.4-.9-1.9-2.8-.9-4.2zm-3 23.3c-1.7 0-3.1-1.4-3-3.1 0-1.7 1.4-3.1 3.1-3.1 1.7 0 3 1.4 3 3.1-.1 1.7-1.4 3.1-3.1 3.1zm7 18.1c-1.4.9-3.3.5-4.2-.9-.9-1.4-.5-3.3.9-4.2 1.4-.9 3.3-.5 4.2.9 1 1.4.5 3.3-.9 4.2zm2.8-9.8c-2 .6-4.2-.6-4.7-2.6-.6-2 .6-4.1 2.6-4.7 2-.6 4.1.6 4.7 2.6.6 2-.6 4.1-2.6 4.7zm2.6-17.7c-.6 2-2.7 3.2-4.7 2.6-2-.6-3.2-2.7-2.6-4.7.6-2 2.7-3.2 4.7-2.6 2 .6 3.2 2.7 2.6 4.7zm24-28c.2-1.7 1.8-2.8 3.5-2.6 1.7.2 2.8 1.8 2.6 3.5-.2 1.7-1.8 2.8-3.5 2.6-1.7-.3-2.9-1.8-2.6-3.5zm-6.4 4.2c2.1-.3 4 1.1 4.3 3.2.3 2.1-1.2 4-3.2 4.3-2.1.3-4-1.2-4.3-3.2-.3-2 1.1-4 3.2-4.3zm-11-3.8c1.5-.7 3.3 0 4 1.5.7 1.5 0 3.4-1.5 4-1.5.7-3.3 0-4-1.5-.8-1.5-.1-3.4 1.5-4zm-4.6 11c1.6-1.4 4-1.2 5.4.4 1.4 1.6 1.2 4-.4 5.4-1.6 1.4-4 1.2-5.4-.4-1.4-1.6-1.2-4 .4-5.4zm-.4 40.8c1.4-1.6 3.8-1.8 5.4-.4 1.6 1.4 1.8 3.8.4 5.4-1.4 1.6-3.8 1.8-5.4.4-1.6-1.4-1.8-3.8-.4-5.4zm8.8 14.8c-.7 1.5-2.5 2.2-4.1 1.5-1.5-.7-2.2-2.5-1.5-4.1.7-1.5 2.5-2.2 4.1-1.5 1.5.7 2.2 2.5 1.5 4.1zm11.5-5.5c-.3 2.1-2.2 3.5-4.3 3.2-2.1-.3-3.5-2.2-3.2-4.3.3-2.1 2.2-3.5 4.3-3.2 2.1.3 3.5 2.2 3.2 4.3zm-12.3-27c0-7.4 6.1-13.5 13.5-13.5 7.5 0 13.5 6 13.5 13.5s-6 13.5-13.5 13.5c-7.4 0-13.5-6.1-13.5-13.5zm17.6 37c-1.7.2-3.2-.9-3.5-2.6-.2-1.7.9-3.2 2.6-3.5 1.7-.2 3.2.9 3.4 2.6.3 1.7-.9 3.3-2.5 3.5zm7.5-9.2c-1.9.9-4.2 0-5.1-1.9-.9-1.9 0-4.2 1.9-5.1 1.9-.9 4.2 0 5.1 1.9.8 1.9 0 4.2-1.9 5.1zm1.9-50.6c-.9 1.9-3.1 2.8-5.1 1.9-1.9-.9-2.8-3.2-1.9-5.1.9-1.9 3.2-2.8 5.1-1.9 1.9 1 2.7 3.2 1.9 5.1zm5.7-5.1c1.1-1.3 3-1.4 4.3-.3 1.3 1.1 1.4 3 .3 4.3-1.1 1.3-3 1.4-4.3.3-1.3-1.1-1.4-3.1-.3-4.3zm.1 10.2c1.8-1.1 4.1-.6 5.3 1.1 1.1 1.8.6 4.1-1.1 5.3-1.8 1.1-4.1.6-5.3-1.1-1.2-1.8-.7-4.1 1.1-5.3zm4 46c-1.3 1.1-3.2 1-4.3-.3-1.1-1.3-1-3.2.3-4.3 1.3-1.1 3.2-1 4.3.3 1.1 1.3 1 3.2-.3 4.3zm1.3-11.8c-1.1 1.8-3.5 2.3-5.3 1.1-1.8-1.1-2.3-3.5-1.1-5.3 1.1-1.8 3.5-2.3 5.3-1.1 1.7 1.2 2.2 3.5 1.1 5.3zm1-12.7c-2.1 0-3.8-1.7-3.8-3.8 0-2.1 1.7-3.8 3.8-3.8 2.1 0 3.8 1.7 3.8 3.8 0 2.1-1.7 3.8-3.8 3.8zm9.1 6.8c-.5 1.6-2.2 2.6-3.8 2.1-1.6-.5-2.5-2.2-2.1-3.8.5-1.6 2.2-2.5 3.8-2 1.7.4 2.6 2.1 2.1 3.7zm-2-17.3c-1.6.5-3.3-.5-3.8-2.1s.5-3.3 2.1-3.8 3.3.5 3.8 2.1c.5 1.7-.5 3.4-2.1 3.8z"/><path fill="#829028" d="M131.3 65.2c-.3-2.4-1.1-4.4-2-6.3-.8-1.6-1.7-3.3-2.8-5.1-1.9-3.1-4.1-6.2-6.4-9.2-6-7.9-13.2-16-21.9-24.7-2.9-2.9-5.5-5.4-8-7.6-3.1-2.8-5.8-5.1-8.5-7.1-1.7-1.3-3.2-2.3-4.6-3.2-.8-.5-1.7-1-2.8-1.4-1.3-.4-2.6-.5-3.8-.6h-.1l-4.6.3c-5.6.3-8.4 1.1-12.6 2.3l-1.3.4c-2.9.8-5.3 1.5-7.5 2.2-2.3.7-4.6 1.5-7.3 2.5-5.3 2-9.8 3.9-13.8 5.8-2.2 1.1-4.3 2.3-6.3 3.6-1.2.7-2.1 1.4-2.9 2.1-.9.8-1.9 1.7-2.6 2.8-.6 1-1 2.2-1.4 3.4l-.1.3c-1.2 3.6-2.1 7.4-3 11.7-1 4.6-2 9.7-3.1 16.3-.9 5.4-1.7 10.9-2.4 17-.7 5.6-1.1 10.8-1.3 15.7v6c.1 1.8.2 3.8.4 5.6.3 2.3.9 3.9 1.8 5 1.1 1.3 2.7 2.1 4 2.7 1.4.6 2.8 1.1 4.6 1.5 6.6 1.7 14.3 2.3 21 2.7 4 .2 8.3.3 11.5.3 8.4 0 15.6-.5 22.2-1.4 3.1-.4 6.6-1 9.9-2.1 2.9-1 5.7-2.1 8.5-3.3 2.5-1.1 5-2.3 7.4-3.4l.7-.3c5.1-2.5 10.1-5.2 15.3-8.3 5.4-3.3 10-6.5 13.9-9.8 1-.9 2.1-1.8 3.1-2.9 1.1-1.1 2-2.1 2.9-3.2 1.7-2.2 3.6-4.9 4-8.6v-1.4l-.1-.3zm-2.6 1.4c-.4 3-1.9 5.3-3.5 7.3-.8 1-1.7 2-2.7 3-1 1-2 1.9-2.9 2.7-3.8 3.2-8.3 6.4-13.6 9.5-5.1 3.1-10 5.7-15.1 8.2l-.7.3c-2.4 1.1-4.8 2.3-7.3 3.4-2.9 1.2-5.5 2.3-8.3 3.3-3.1 1-6.6 1.6-9.4 2-6.5.9-13.6 1.4-21.8 1.4-3.2 0-7.4 0-11.4-.2-6.5-.4-14.1-1-20.5-2.6-1.7-.4-3-.9-4.2-1.4-1-.4-2.3-1-3-1.9-.7-.9-1.1-2.6-1.2-3.8-.2-1.7-.3-3.5-.4-5.2v-3.5c0-.5 0-1.1.1-1.7v-.8c.1-4.9.5-10 1.2-15.6.7-6 1.5-11.6 2.4-16.9 1.1-6.5 2.1-11.6 3.1-16.1.9-4.2 1.8-7.9 3-11.4l.1-.3c.4-1.1.7-2.1 1.2-2.9.5-.8 1.3-1.5 2.1-2.2.7-.6 1.6-1.3 2.7-1.9 1.9-1.2 3.9-2.4 6.1-3.4 3.8-1.9 8.2-3.8 13.5-5.7 2.7-1 4.9-1.8 7.1-2.5 2.2-.7 4.6-1.4 7.4-2.2l1.3-.4c4.2-1.2 6.7-1.9 12.1-2.2l4.4-.3c1 .1 2 .2 2.9.5.9.3 1.7.8 2.4 1.2 1.4.8 2.8 1.8 4.4 3 2.6 2 5.2 4.2 8.3 7 2.4 2.2 5 4.6 7.9 7.5 8.6 8.6 15.7 16.6 21.7 24.4 2.2 2.9 4.3 5.9 6.2 9 1 1.7 1.9 3.3 2.7 4.9.8 1.6 1.5 3.4 1.7 5.4v1.1z"/><path fill="#262626" d="M86.1 51.3c-2.1 0-3.8 1.7-3.8 3.8 0 2.1 1.7 3.8 3.8 3.8 2.1 0 3.8-1.7 3.8-3.8 0-2.1-1.7-3.8-3.8-3.8zM32.6 58.9c-2 .6-3.2 2.7-2.6 4.7.6 2 2.7 3.2 4.7 2.6 2-.6 3.2-2.7 2.6-4.7-.5-2-2.6-3.1-4.7-2.6zM56.1 77.8c-2.1-.3-4 1.2-4.3 3.2-.3 2.1 1.2 4 3.2 4.3 2.1.3 4-1.1 4.3-3.2.3-2.1-1.1-4-3.2-4.3zM34.8 43.9c-2-.6-4.2.6-4.7 2.6-.6 2 .6 4.1 2.6 4.7 2 .6 4.1-.6 4.7-2.6.6-2-.6-4.1-2.6-4.7zM44.7 77.8c1.4-1.6 1.2-4-.4-5.4-1.6-1.4-4-1.2-5.4.4-1.4 1.6-1.2 4 .4 5.4 1.7 1.4 4.1 1.2 5.4-.4zM72.1 27.3c-1.9-.9-4.2 0-5.1 1.9-.9 1.9 0 4.2 1.9 5.1 1.9.9 4.2 0 5.1-1.9.8-2 0-4.2-1.9-5.1zM44.4 37.8c1.6-1.4 1.8-3.8.4-5.4-1.4-1.6-3.8-1.8-5.4-.4-1.6 1.4-1.8 3.8-.4 5.4 1.4 1.6 3.8 1.7 5.4.4zM83.9 66.3c-1.8-1.1-4.1-.6-5.3 1.1-1.1 1.8-.6 4.1 1.1 5.3 1.8 1.1 4.1.6 5.3-1.1 1.2-1.8.7-4.1-1.1-5.3zM83.9 43.8c1.8-1.1 2.3-3.5 1.1-5.3-1.1-1.8-3.5-2.3-5.3-1.1-1.8 1.1-2.3 3.5-1.1 5.3 1.2 1.8 3.6 2.3 5.3 1.1zM56.1 32.4c2.1-.3 3.5-2.2 3.2-4.3-.3-2.1-2.2-3.5-4.3-3.2-2.1.3-3.5 2.2-3.2 4.3.3 2.1 2.2 3.5 4.3 3.2zM68.9 75.9c-1.9.9-2.8 3.2-1.9 5.1.9 1.9 3.1 2.8 5.1 1.9 1.9-.9 2.8-3.1 1.9-5.1-.9-1.9-3.2-2.7-5.1-1.9zM28.9 38.9c1.4.9 3.3.5 4.2-.9.9-1.4.5-3.3-.9-4.2-1.4-.9-3.3-.5-4.2.9-1 1.4-.5 3.3.9 4.2zM25 51.9c-1.7 0-3.1 1.4-3.1 3.1 0 1.7 1.4 3.1 3 3.1 1.7 0 3.1-1.4 3.1-3 0-1.8-1.3-3.2-3-3.2zM91.5 42.6c-1.6.5-2.5 2.2-2.1 3.8.5 1.6 2.2 2.6 3.8 2.1 1.6-.5 2.6-2.2 2.1-3.8-.5-1.7-2.2-2.6-3.8-2.1zM84.3 31.2c1.1-1.3 1-3.2-.3-4.3-1.3-1.1-3.2-1-4.3.3-1.1 1.3-1 3.2.3 4.3 1.3 1.1 3.2 1 4.3-.3zM79.8 78.8c-1.3 1.1-1.4 3-.3 4.3 1.1 1.3 3 1.4 4.3.3 1.3-1.1 1.4-3 .3-4.3-1.1-1.2-3-1.4-4.3-.3zM63.7 86.1c-1.7.2-2.8 1.8-2.6 3.5.2 1.7 1.8 2.8 3.5 2.6 1.7-.2 2.8-1.8 2.6-3.5-.3-1.7-1.8-2.9-3.5-2.6zM46.3 83.5c-1.5-.7-3.3 0-4.1 1.5-.7 1.5 0 3.3 1.5 4.1 1.5.7 3.3 0 4.1-1.5.7-1.6 0-3.4-1.5-4.1zM93.2 61.9c-1.6-.5-3.3.4-3.8 2s.4 3.3 2.1 3.8c1.6.5 3.3-.4 3.8-2.1.4-1.5-.5-3.2-2.1-3.7zM64 24.1c1.7.2 3.2-.9 3.5-2.6.3-1.7-.9-3.2-2.6-3.5-1.7-.2-3.2.9-3.5 2.6-.3 1.7.9 3.2 2.6 3.5zM46.5 26.5c1.5-.7 2.2-2.5 1.5-4-.7-1.5-2.5-2.2-4-1.5-1.5.7-2.2 2.5-1.5 4 .6 1.5 2.4 2.2 4 1.5zM28.7 71c-1.4.9-1.9 2.8-.9 4.2.9 1.4 2.8 1.8 4.2.9 1.4-.9 1.8-2.8.9-4.2-.8-1.4-2.7-1.8-4.2-.9z"/><path fill="#fff" d="M74 55.1c0-7.4-6-13.5-13.5-13.5s-13.5 6.1-13.5 13.5c0 7.5 6.1 13.5 13.5 13.5 7.5 0 13.5-6.1 13.5-13.5z"/></svg>